<svg width="32" height="32" viewBox="0 0 32 32" xmlns="http://www.w3.org/2000/svg">
  <!-- Coffer/Treasury chest base -->
  <rect x="4" y="12" width="24" height="16" rx="2" fill="#2D5016" stroke="#4A7C23" stroke-width="1"/>
  
  <!-- Chest lid -->
  <path d="M4 12 Q4 8 8 8 L24 8 Q28 8 28 12 L28 16 L4 16 Z" fill="#3A6B1C" stroke="#4A7C23" stroke-width="1"/>
  
  <!-- Lock/clasp -->
  <circle cx="16" cy="14" r="2.5" fill="#FFD700" stroke="#E6C200" stroke-width="0.5"/>
  <rect x="15" y="11.5" width="2" height="2" fill="#FFD700"/>
  
  <!-- Offer combination arrows (representing merging offers) -->
  <g fill="#9ACD32" opacity="0.8">
    <!-- Left arrow -->
    <path d="M2 6 L8 6 L6 4 M8 6 L6 8"/>
    <!-- Right arrow -->
    <path d="M30 6 L24 6 L26 4 M24 6 L26 8"/>
    <!-- Down arrow (combining) -->
    <path d="M16 2 L16 8 L14 6 M16 8 L18 6"/>
  </g>
  
  <!-- Decorative corner elements (suggesting blockchain/digital) -->
  <rect x="6" y="18" width="2" height="2" fill="#4A7C23" opacity="0.6"/>
  <rect x="24" y="18" width="2" height="2" fill="#4A7C23" opacity="0.6"/>
  <rect x="6" y="24" width="2" height="2" fill="#4A7C23" opacity="0.6"/>
  <rect x="24" y="24" width="2" height="2" fill="#4A7C23" opacity="0.6"/>
</svg>

